<?xml version="1.0" encoding="UTF-8" standalone="no"?>
<!-- Created with Inkscape (http://www.inkscape.org/) -->

<svg
   xmlns:dc="http://purl.org/dc/elements/1.1/"
   xmlns:cc="http://creativecommons.org/ns#"
   xmlns:rdf="http://www.w3.org/1999/02/22-rdf-syntax-ns#"
   xmlns:svg="http://www.w3.org/2000/svg"
   xmlns="http://www.w3.org/2000/svg"
   xmlns:sodipodi="http://sodipodi.sourceforge.net/DTD/sodipodi-0.dtd"
   xmlns:inkscape="http://www.inkscape.org/namespaces/inkscape"
   width="210mm"
   height="297mm"
   viewBox="0 0 210 297"
   version="1.1"
   id="svg7630"
   inkscape:version="0.92.1 r15371"
   sodipodi:docname="scala-stm2.svg"
   inkscape:export-filename="/home/hhrutz/Downloads/scala-stm2.png"
   inkscape:export-xdpi="129.41"
   inkscape:export-ydpi="129.41">
  <defs
     id="defs7624" />
  <sodipodi:namedview
     id="base"
     pagecolor="#ffffff"
     bordercolor="#666666"
     borderopacity="1.0"
     inkscape:pageopacity="0.0"
     inkscape:pageshadow="2"
     inkscape:zoom="0.49497475"
     inkscape:cx="630.96767"
     inkscape:cy="579.16469"
     inkscape:document-units="mm"
     inkscape:current-layer="layer1"
     showgrid="false"
     inkscape:window-width="1920"
     inkscape:window-height="1016"
     inkscape:window-x="0"
     inkscape:window-y="27"
     inkscape:window-maximized="1"
     inkscape:snap-nodes="false"
     inkscape:snap-others="false" />
  <metadata
     id="metadata7627">
    <rdf:RDF>
      <cc:Work
         rdf:about="">
        <dc:format>image/svg+xml</dc:format>
        <dc:type
           rdf:resource="http://purl.org/dc/dcmitype/StillImage" />
        <dc:title></dc:title>
      </cc:Work>
    </rdf:RDF>
  </metadata>
  <g
     inkscape:label="Layer 1"
     inkscape:groupmode="layer"
     id="layer1">
    <g
       display="none"
       id="g7720"
       style="display:none"
       transform="matrix(0.18708867,-0.18708867,0.18708867,0.18708867,24.372144,149.91505)">
      <path
         display="inline"
         d="m 30.7,51.3 c 0,0.1 0,0.3 0,0.5 0,0 0,0 0,0 0,-0.2 0,-0.3 0,-0.5 z"
         id="path7718"
         inkscape:connector-curvature="0"
         style="clip-rule:evenodd;display:inline;fill:#555555;fill-rule:evenodd" />
    </g>
    <g
       display="none"
       id="g7740"
       style="display:none"
       transform="matrix(0.18708867,-0.18708867,0.18708867,0.18708867,24.372144,149.91505)">
      <path
         display="inline"
         d="m 30.7,103 c 0.1,0 0.1,0 0.2,0 -0.1,-0.2 -0.2,-0.3 -0.2,-0.5 0,0.2 0,0.3 0,0.5 z"
         id="path7738"
         inkscape:connector-curvature="0"
         style="clip-rule:evenodd;display:inline;fill:#555555;fill-rule:evenodd" />
    </g>
    <g
       display="none"
       id="g7744"
       style="display:none"
       transform="matrix(0.18708867,-0.18708867,0.18708867,0.18708867,24.372144,149.91505)">
      <path
         display="inline"
         d="m 30.7,168.8 c 0.1,0 0.1,0 0.2,0 -0.1,-0.2 -0.2,-0.3 -0.2,-0.5 0,0.2 0,0.3 0,0.5 z"
         id="path7742"
         inkscape:connector-curvature="0"
         style="clip-rule:evenodd;display:inline;fill:#555555;fill-rule:evenodd" />
    </g>
    <g
       id="g7758"
       transform="matrix(0.26458333,0,0,0.26458333,38.786901,164.45732)">
      <g
         id="g7748">
        <path
           d="m 137.7,37.7 c -31.1,9 -80.4,14.1 -107,14.1 0,0 0,0 0,0 0,7.6 0,34.3 0,50.7 0,0.1 0.1,0.3 0.2,0.5 18.1,0 74.1,-5.9 107.9,-15.2 6.5,-1.8 12.8,-3.7 17.3,-5.7 4.1,-1.9 6.8,-3.8 6.8,-5.9 0,-16.7 0,-44.2 0,-51.2 -0.1,4.8 -12.6,9.1 -25.2,12.7 z"
           id="path7746"
           inkscape:connector-curvature="0"
           style="clip-rule:evenodd;fill:#dc322f;fill-rule:evenodd" />
      </g>
      <g
         id="g7752">
        <path
           d="m 137.7,103.5 c -18.6,5.4 -43.7,9.4 -66.6,11.7 -15.4,1.6 -29.7,2.4 -40.4,2.4 0,0 0,0 0,0 0,7.6 0,34.3 0,50.7 0,0.1 0.1,0.3 0.2,0.5 18.1,0 74.1,-5.9 107.9,-15.2 6.5,-1.8 12.8,-3.7 17.3,-5.7 4.1,-1.9 6.8,-3.8 6.8,-5.9 0,-3.8 0,-8.1 0,-12.7 0,-11.7 0,-29.7 0,-38.5 -0.1,4.8 -12.6,9.1 -25.2,12.7 z"
           id="path7750"
           inkscape:connector-curvature="0"
           style="clip-rule:evenodd;fill:#dc322f;fill-rule:evenodd" />
      </g>
      <g
         id="g7756">
        <path
           d="m 137.7,169.3 c -18.6,5.4 -43.7,9.4 -66.6,11.7 -15.4,1.6 -29.7,2.4 -40.4,2.4 0,8.7 0,39.3 0,51.2 17.9,0 74.2,-5.9 108.1,-15.2 12.5,-3.4 24.1,-7.3 24.1,-11.6 0,-3.8 0,-8.1 0,-12.7 0,-11.7 0,-29.7 0,-38.5 -0.1,4.8 -12.6,9.1 -25.2,12.7 z"
           id="path7754"
           inkscape:connector-curvature="0"
           style="clip-rule:evenodd;fill:#dc322f;fill-rule:evenodd" />
      </g>
    </g>
    <g
       id="g12727"
       transform="translate(0,1.122625)">
      <text
         id="text7685"
         y="202.64153"
         x="87.067741"
         style="font-style:normal;font-variant:normal;font-weight:normal;font-stretch:normal;font-size:5.64444447px;line-height:1.25;font-family:'Liberation Sans Narrow';-inkscape-font-specification:'Liberation Sans Narrow';letter-spacing:0px;word-spacing:0px;fill:#231f20;fill-opacity:1;stroke:none;stroke-width:0.26458332"
         xml:space="preserve"><tspan
           style="font-style:normal;font-variant:normal;font-weight:bold;font-stretch:normal;font-size:31.75px;font-family:Cabin;-inkscape-font-specification:'Cabin Bold';fill:#231f20;fill-opacity:1;stroke-width:0.26458332"
           y="202.64153"
           x="87.067741"
           id="tspan7683"
           sodipodi:role="line">STM</tspan></text>
      <path
         inkscape:connector-curvature="0"
         id="path12722"
         d="m 119.07298,215.36552 c -0.41455,-0.0746 -0.78172,-0.271 -1.10098,-0.58881 -0.39757,-0.39577 -0.57911,-0.87685 -0.54744,-1.45071 0.0181,-0.32785 0.0778,-0.53401 0.24052,-0.83 l 0.10139,-0.18443 -0.92769,-1.06681 c -0.51022,-0.58675 -0.95784,-1.09799 -0.9947,-1.1361 l -0.067,-0.0693 -0.15785,0.10655 c -0.69856,0.47149 -1.67846,0.43505 -2.37469,-0.0883 -0.0984,-0.074 -0.19058,-0.13004 -0.20493,-0.12463 -0.0143,0.005 -0.55533,0.38493 -1.2022,0.84343 l -1.17611,0.83362 0.0551,0.12456 c 0.1092,0.24686 0.15174,0.51038 0.13544,0.83911 -0.0258,0.52035 -0.18891,0.87758 -0.57737,1.26439 -0.18611,0.18533 -0.30848,0.27879 -0.47177,0.36031 -1.13385,0.56605 -2.48628,0.031 -2.87106,-1.13583 -0.0667,-0.202 -0.079,-0.29135 -0.0799,-0.57706 -0.002,-0.38054 0.0408,-0.56255 0.2031,-0.88012 0.54105,-1.0583 1.92598,-1.41232 2.91884,-0.74611 0.17113,0.11483 0.20409,0.12718 0.2553,0.0956 0.0323,-0.0199 0.57369,-0.40132 1.20301,-0.84753 0.62933,-0.44622 1.15464,-0.81838 1.16736,-0.82704 0.0128,-0.009 -0.005,-0.10126 -0.0397,-0.20576 -0.0925,-0.27964 -0.0914,-0.84783 0.002,-1.11282 0.0365,-0.10333 0.0557,-0.19851 0.0426,-0.21148 -0.0131,-0.0129 -0.61089,-0.33487 -1.32851,-0.71533 l -1.30476,-0.69175 -0.10623,0.0834 c -0.19047,0.14964 -0.29886,0.18932 -0.55516,0.20329 -0.22717,0.0124 -0.2556,0.007 -0.43236,-0.0799 -0.31978,-0.15743 -0.48562,-0.41739 -0.48562,-0.76125 0,-0.2165 0.0459,-0.35525 0.17284,-0.52157 0.2204,-0.28898 0.64115,-0.41252 0.99953,-0.29348 0.34223,0.11367 0.59065,0.46309 0.59197,0.83267 l 6.2e-4,0.16793 1.34125,0.70982 1.34126,0.70982 0.16012,-0.17295 c 0.17978,-0.19418 0.49192,-0.41364 0.69583,-0.48921 l 0.13554,-0.0502 -0.008,-1.00901 -0.008,-1.009 -0.2365,-0.0795 c -0.31463,-0.10577 -0.53782,-0.24429 -0.77376,-0.48023 -0.36896,-0.36897 -0.534,-0.74763 -0.55587,-1.27538 -0.0162,-0.39023 0.0268,-0.59158 0.20358,-0.9548 0.15522,-0.31885 0.49204,-0.66577 0.80403,-0.82817 0.35243,-0.18343 0.59717,-0.24365 0.98476,-0.24231 0.3897,0.002 0.6118,0.0514 0.92596,0.20861 0.48744,0.24392 0.83576,0.64998 1.0041,1.17052 0.0956,0.29566 0.10718,0.74469 0.0269,1.04355 -0.17708,0.65924 -0.73064,1.21596 -1.3911,1.39908 l -0.18372,0.0509 v 0.94716 0.94714 l 0.15596,0.0195 c 0.35103,0.0439 0.79233,0.24574 1.05725,0.48364 l 0.11088,0.0996 0.1606,-0.11423 c 0.0883,-0.0628 0.79425,-0.57061 1.56869,-1.12839 l 1.40812,-1.01416 -0.002,-0.23516 c -0.002,-0.27891 0.0552,-0.47072 0.19869,-0.66632 0.38619,-0.52629 1.19529,-0.58213 1.66221,-0.1147 0.51786,0.51838 0.3552,1.36655 -0.32396,1.68936 -0.1696,0.0806 -0.2208,0.0908 -0.45564,0.0908 -0.2353,0 -0.28568,-0.0101 -0.45563,-0.0913 -0.10509,-0.0502 -0.24068,-0.14006 -0.30133,-0.19971 -0.0734,-0.0722 -0.12353,-0.10061 -0.14998,-0.085 -0.0219,0.0129 -0.71496,0.51108 -1.54026,1.10701 l -1.50055,1.08352 0.10017,0.21092 c 0.21714,0.45725 0.24248,0.95325 0.0742,1.4526 l -0.0922,0.27366 0.9888,1.13732 c 0.54385,0.62553 1.00354,1.1533 1.02154,1.17282 0.0252,0.0274 0.0728,0.0157 0.2091,-0.0515 0.60258,-0.29718 1.39505,-0.26526 1.96175,0.079 0.40026,0.24313 0.72161,0.64412 0.86521,1.07958 0.0667,0.20201 0.079,0.29134 0.0799,0.57705 6.8e-4,0.24374 -0.0136,0.38683 -0.0517,0.51289 -0.20621,0.68181 -0.73431,1.19764 -1.41476,1.38191 -0.21478,0.0582 -0.68027,0.0816 -0.8859,0.0445 z"
         style="fill:#231f20;fill-opacity:1;stroke-width:0.99999988" />
    </g>
  </g>
</svg>
